<svg xmlns="http://www.w3.org/2000/svg" width="1290" height="2796" viewBox="0 0 1290 2796">
  <defs>
    <linearGradient id="bg" x1="0" y1="0" x2="1" y2="1">
      <stop offset="0%" stop-color="#0E1A2B"/>
      <stop offset="60%" stop-color="#1B3558"/>
      <stop offset="100%" stop-color="#264C74"/>
    </linearGradient>
    <linearGradient id="accent" x1="0" y1="0" x2="1" y2="0">
      <stop offset="0%" stop-color="#F5C76F"/>
      <stop offset="100%" stop-color="#F59E42"/>
    </linearGradient>
  </defs>
  <rect width="1290" height="2796" fill="url(#bg)"/>
  <circle cx="180" cy="280" r="200" fill="#355A8A" opacity="0.35"/>
  <circle cx="1130" cy="410" r="220" fill="#5E86B8" opacity="0.22"/>
  <circle cx="980" cy="2400" r="280" fill="#4B73A4" opacity="0.24"/>

  <text x="96" y="220" font-family="Pretendard, Apple SD Gothic Neo, sans-serif" font-size="62" font-weight="700" fill="#F8FBFF">Thiscount</text>
  <text x="96" y="302" font-family="Pretendard, Apple SD Gothic Neo, sans-serif" font-size="40" font-weight="500" fill="#D5E6FF">세계로 보내는 랜덤 편지</text>

  <rect x="96" y="370" rx="28" ry="28" width="1098" height="120" fill="#0A1422" opacity="0.6"/>
  <text x="150" y="446" font-family="Pretendard, Apple SD Gothic Neo, sans-serif" font-size="42" font-weight="600" fill="#F5F9FF">오늘의 생각을 병편지로 보내세요</text>

  <rect x="130" y="560" rx="90" ry="90" width="1030" height="1900" fill="#07101D" stroke="#5D7FAF" stroke-width="8"/>
  <rect x="205" y="665" rx="30" ry="30" width="880" height="1680" fill="#12243B" stroke="#86A5D2" stroke-width="4" stroke-dasharray="14 10"/>
  <text x="300" y="1510" font-family="Pretendard, Apple SD Gothic Neo, sans-serif" font-size="46" font-weight="600" fill="#CFE1FF">여기에 실제 앱 스크린샷 삽입</text>

  <rect x="96" y="2518" rx="32" ry="32" width="530" height="150" fill="url(#accent)"/>
  <text x="154" y="2610" font-family="Pretendard, Apple SD Gothic Neo, sans-serif" font-size="44" font-weight="700" fill="#1F2430">랜덤 국가 매칭</text>

  <rect x="664" y="2518" rx="32" ry="32" width="530" height="150" fill="#172A44" stroke="#7399CA" stroke-width="4"/>
  <text x="740" y="2610" font-family="Pretendard, Apple SD Gothic Neo, sans-serif" font-size="44" font-weight="700" fill="#E8F2FF">지도 배송 추적</text>
</svg>
